<?xml version="1.0" encoding="utf-8"?>
<!-- Generator: Adobe Illustrator 26.2.1, SVG Export Plug-In . SVG Version: 6.00 Build 0)  -->
<svg version="1.1" id="Capa_1" xmlns="http://www.w3.org/2000/svg" xmlns:xlink="http://www.w3.org/1999/xlink" x="0px" y="0px"
	 viewBox="0 0 448 512" style="enable-background:new 0 0 448 512;" xml:space="preserve">
<style type="text/css">
	.st0{stroke:#000000;stroke-width:5;stroke-miterlimit:10;}
</style>
<g>
	<path class="st0" d="M124.1,118.4c-2.2-35.2,8.1-65.1,34.7-88.1c19.7-17.1,43-25.1,69.1-24.2C286,8,331,59.8,324.4,118.4
		c2.6,0,5.1-0.1,7.7,0c12.3,0.3,24.8-0.6,36.9,1.2c21.9,3.3,38.5,22.1,39.8,44.1c2.1,34.6,3.5,69.3,5.2,104
		c2.7,55.8,5.4,111.6,7.9,167.5c0.5,10.5,1.2,21.3-0.7,31.6c-4.2,22.8-24.2,38.8-47.5,39.1c-19.1,0.3-38.3,0.1-57.4,0.1
		c-79.6,0-159.3,0-238.9,0c-26,0-46.8-16.2-50.9-41c-1.6-9.6-0.6-19.7-0.2-29.6c1.8-41.4,3.9-82.9,5.8-124.3
		c2.4-49.2,4.5-98.5,7.3-147.7c1.4-24.7,23-44.5,47.8-44.9C99.2,118.2,111.2,118.4,124.1,118.4z M224.1,472.6c48.9,0,97.7,0,146.6,0
		c12.3,0,18.9-6.9,18.5-19.3c-0.2-5.4-0.4-10.8-0.6-16.1c-2.7-56.3-5.3-112.7-8-169c-1.6-33.1-3-66.2-4.8-99.3
		c-0.6-12-7.3-17.9-19.2-17.8c-26.1,0.1-52.2,0.2-78.3,0.3c-62.4,0.2-124.9,0.3-187.3,0.5c-11.7,0-18,5.8-18.8,17.6
		c-0.8,13.5-1.3,27-1.9,40.6c-3.8,80.8-7.6,161.6-11.4,242.4c-0.6,13.7,5.7,20.3,19.5,20.3C127.1,472.6,175.6,472.6,224.1,472.6z
		 M290.3,118.3c4.4-28-8.4-55.5-32.2-69.7c-23.4-13.9-53.3-12.1-74.8,4.7c-20.1,15.6-29.1,39.8-25.1,65
		C202.1,118.3,246,118.3,290.3,118.3z"/>
	<path class="st0" d="M224.5,286.2c-46.7,0-86.5-31-97.8-76.2c-2.8-11.2,1.8-20.4,11.4-22.7c10.2-2.5,18.4,3.2,21.4,14.5
		c6.7,25.7,22.8,42.8,48.4,49.5c25.2,6.6,47.4-0.4,65.6-19.1c8.8-9.1,13.8-20.2,16.7-32.4c1.9-8.1,8.2-12.7,16.2-12.9
		c7.7-0.1,14.2,4.1,16.1,11.4c0.9,3.2,0.9,6.9,0.2,10.2C312.1,254.4,271.9,286.2,224.5,286.2z"/>
</g>
</svg>
